<mxfile modified="2023-04-18T21:28:24.748Z" host="Electron" agent="Mozilla/5.0 (X11; Linux x86_64) AppleWebKit/537.36 (KHTML, like Gecko) draw.io/21.1.2 Chrome/106.0.5249.199 Electron/21.4.3 Safari/537.36" etag="OkD1mgnfw9srw4RUQepR" version="21.1.2" type="device">
  <diagram id="Ht1M8jgEwFfnCIfOTk4-" name="Page-1">
    <mxGraphModel dx="1434" dy="823" grid="1" gridSize="10" guides="1" tooltips="1" connect="1" arrows="1" fold="1" page="1" pageScale="1" pageWidth="1169" pageHeight="827" math="0" shadow="0">
      <root>
        <mxCell id="0" />
        <mxCell id="1" parent="0" />
        <mxCell id="Krwih4lJz7rkfIzwkfhB-37" value="" style="group" vertex="1" connectable="0" parent="1">
          <mxGeometry x="80" y="80" width="1009.2" height="650" as="geometry" />
        </mxCell>
        <mxCell id="UEzPUAAOIrF-is8g5C7q-74" value="AWS Cloud" style="points=[[0,0],[0.25,0],[0.5,0],[0.75,0],[1,0],[1,0.25],[1,0.5],[1,0.75],[1,1],[0.75,1],[0.5,1],[0.25,1],[0,1],[0,0.75],[0,0.5],[0,0.25]];outlineConnect=0;gradientColor=none;html=1;whiteSpace=wrap;fontSize=12;fontStyle=0;shape=mxgraph.aws4.group;grIcon=mxgraph.aws4.group_aws_cloud_alt;strokeColor=#232F3E;fillColor=none;verticalAlign=top;align=left;spacingLeft=30;fontColor=#232F3E;dashed=0;labelBackgroundColor=#ffffff;container=1;pointerEvents=0;collapsible=0;recursiveResize=0;" parent="Krwih4lJz7rkfIzwkfhB-37" vertex="1">
          <mxGeometry width="780" height="650" as="geometry" />
        </mxCell>
        <mxCell id="Krwih4lJz7rkfIzwkfhB-2" value="" style="sketch=0;outlineConnect=0;fontColor=#232F3E;gradientColor=none;fillColor=#3F8624;strokeColor=none;dashed=0;verticalLabelPosition=bottom;verticalAlign=top;align=center;html=1;fontSize=12;fontStyle=0;aspect=fixed;pointerEvents=1;shape=mxgraph.aws4.bucket_with_objects;" vertex="1" parent="UEzPUAAOIrF-is8g5C7q-74">
          <mxGeometry x="640" y="80" width="76.92" height="80" as="geometry" />
        </mxCell>
        <mxCell id="Krwih4lJz7rkfIzwkfhB-5" value="VPC" style="points=[[0,0],[0.25,0],[0.5,0],[0.75,0],[1,0],[1,0.25],[1,0.5],[1,0.75],[1,1],[0.75,1],[0.5,1],[0.25,1],[0,1],[0,0.75],[0,0.5],[0,0.25]];outlineConnect=0;gradientColor=none;html=1;whiteSpace=wrap;fontSize=12;fontStyle=0;container=1;pointerEvents=0;collapsible=0;recursiveResize=0;shape=mxgraph.aws4.group;grIcon=mxgraph.aws4.group_vpc;strokeColor=#248814;fillColor=none;verticalAlign=top;align=left;spacingLeft=30;fontColor=#AAB7B8;dashed=0;" vertex="1" parent="UEzPUAAOIrF-is8g5C7q-74">
          <mxGeometry x="60" y="44" width="460" height="580" as="geometry" />
        </mxCell>
        <mxCell id="Krwih4lJz7rkfIzwkfhB-17" value="" style="whiteSpace=wrap;html=1;aspect=fixed;fillColor=none;" vertex="1" parent="Krwih4lJz7rkfIzwkfhB-5">
          <mxGeometry x="14.75" y="410" width="150.5" height="150.5" as="geometry" />
        </mxCell>
        <mxCell id="Krwih4lJz7rkfIzwkfhB-11" value="" style="rounded=0;whiteSpace=wrap;html=1;fillColor=none;direction=south;" vertex="1" parent="Krwih4lJz7rkfIzwkfhB-5">
          <mxGeometry x="14.75" y="39" width="195.25" height="311" as="geometry" />
        </mxCell>
        <mxCell id="Krwih4lJz7rkfIzwkfhB-1" value="" style="sketch=0;outlineConnect=0;fontColor=#232F3E;gradientColor=none;fillColor=#2E27AD;strokeColor=none;dashed=0;verticalLabelPosition=bottom;verticalAlign=top;align=center;html=1;fontSize=12;fontStyle=0;aspect=fixed;pointerEvents=1;shape=mxgraph.aws4.rds_instance;" vertex="1" parent="Krwih4lJz7rkfIzwkfhB-5">
          <mxGeometry x="50" y="446.25" width="78" height="78" as="geometry" />
        </mxCell>
        <mxCell id="Krwih4lJz7rkfIzwkfhB-16" value="" style="endArrow=classic;startArrow=classic;html=1;rounded=0;" edge="1" parent="Krwih4lJz7rkfIzwkfhB-5" source="Krwih4lJz7rkfIzwkfhB-3" target="Krwih4lJz7rkfIzwkfhB-4">
          <mxGeometry width="50" height="50" relative="1" as="geometry">
            <mxPoint x="500" y="20" as="sourcePoint" />
            <mxPoint x="550" y="-30" as="targetPoint" />
          </mxGeometry>
        </mxCell>
        <mxCell id="Krwih4lJz7rkfIzwkfhB-14" value="" style="group" vertex="1" connectable="0" parent="Krwih4lJz7rkfIzwkfhB-5">
          <mxGeometry x="50" y="239" width="80" height="110" as="geometry" />
        </mxCell>
        <mxCell id="Krwih4lJz7rkfIzwkfhB-4" value="" style="sketch=0;points=[[0,0,0],[0.25,0,0],[0.5,0,0],[0.75,0,0],[1,0,0],[0,1,0],[0.25,1,0],[0.5,1,0],[0.75,1,0],[1,1,0],[0,0.25,0],[0,0.5,0],[0,0.75,0],[1,0.25,0],[1,0.5,0],[1,0.75,0]];outlineConnect=0;fontColor=#232F3E;gradientColor=#F78E04;gradientDirection=north;fillColor=#D05C17;strokeColor=#ffffff;dashed=0;verticalLabelPosition=bottom;verticalAlign=top;align=center;html=1;fontSize=12;fontStyle=0;aspect=fixed;shape=mxgraph.aws4.resourceIcon;resIcon=mxgraph.aws4.ec2;" vertex="1" parent="Krwih4lJz7rkfIzwkfhB-14">
          <mxGeometry width="80" height="80" as="geometry" />
        </mxCell>
        <mxCell id="Krwih4lJz7rkfIzwkfhB-12" value="Sub-rede" style="text;html=1;align=center;verticalAlign=middle;resizable=0;points=[];autosize=1;strokeColor=none;fillColor=none;fontStyle=1" vertex="1" parent="Krwih4lJz7rkfIzwkfhB-5">
          <mxGeometry x="210" y="320" width="80" height="30" as="geometry" />
        </mxCell>
        <mxCell id="Krwih4lJz7rkfIzwkfhB-25" value="Sub-rede" style="text;html=1;align=center;verticalAlign=middle;resizable=0;points=[];autosize=1;strokeColor=none;fillColor=none;fontStyle=1" vertex="1" parent="Krwih4lJz7rkfIzwkfhB-5">
          <mxGeometry x="165.25" y="530.5" width="80" height="30" as="geometry" />
        </mxCell>
        <mxCell id="Krwih4lJz7rkfIzwkfhB-28" value="" style="endArrow=classic;startArrow=classic;html=1;rounded=0;" edge="1" parent="Krwih4lJz7rkfIzwkfhB-5" source="Krwih4lJz7rkfIzwkfhB-1" target="Krwih4lJz7rkfIzwkfhB-4">
          <mxGeometry width="50" height="50" relative="1" as="geometry">
            <mxPoint x="480" y="320" as="sourcePoint" />
            <mxPoint x="95" y="360" as="targetPoint" />
          </mxGeometry>
        </mxCell>
        <mxCell id="Krwih4lJz7rkfIzwkfhB-7" value="&lt;b&gt;&lt;font style=&quot;font-size: 15px;&quot;&gt;Backend&lt;/font&gt;&lt;/b&gt;" style="text;html=1;strokeColor=none;fillColor=none;align=center;verticalAlign=middle;whiteSpace=wrap;rounded=0;" vertex="1" parent="Krwih4lJz7rkfIzwkfhB-5">
          <mxGeometry x="140" y="290" width="60" height="30" as="geometry" />
        </mxCell>
        <mxCell id="Krwih4lJz7rkfIzwkfhB-3" value="" style="sketch=0;points=[[0,0,0],[0.25,0,0],[0.5,0,0],[0.75,0,0],[1,0,0],[0,1,0],[0.25,1,0],[0.5,1,0],[0.75,1,0],[1,1,0],[0,0.25,0],[0,0.5,0],[0,0.75,0],[1,0.25,0],[1,0.5,0],[1,0.75,0]];outlineConnect=0;fontColor=#232F3E;gradientColor=#F78E04;gradientDirection=north;fillColor=#D05C17;strokeColor=#ffffff;dashed=0;verticalLabelPosition=bottom;verticalAlign=top;align=center;html=1;fontSize=12;fontStyle=0;aspect=fixed;shape=mxgraph.aws4.resourceIcon;resIcon=mxgraph.aws4.ec2;" vertex="1" parent="Krwih4lJz7rkfIzwkfhB-5">
          <mxGeometry x="50" y="70" width="80" height="80" as="geometry" />
        </mxCell>
        <mxCell id="Krwih4lJz7rkfIzwkfhB-8" value="&lt;b&gt;&lt;font style=&quot;font-size: 15px;&quot;&gt;Frontend&lt;/font&gt;&lt;/b&gt;" style="text;html=1;strokeColor=none;fillColor=none;align=center;verticalAlign=middle;whiteSpace=wrap;rounded=0;" vertex="1" parent="Krwih4lJz7rkfIzwkfhB-5">
          <mxGeometry x="130" y="120" width="80" height="30" as="geometry" />
        </mxCell>
        <mxCell id="Krwih4lJz7rkfIzwkfhB-19" value="" style="outlineConnect=0;dashed=0;verticalLabelPosition=bottom;verticalAlign=top;align=center;html=1;shape=mxgraph.aws3.android;fillColor=#EE472A;gradientColor=none;" vertex="1" parent="UEzPUAAOIrF-is8g5C7q-74">
          <mxGeometry x="636.92" y="359" width="80" height="90" as="geometry" />
        </mxCell>
        <mxCell id="Krwih4lJz7rkfIzwkfhB-26" value="&lt;b&gt;&lt;font style=&quot;font-size: 13px;&quot;&gt;SDK JAVA&lt;/font&gt;&lt;/b&gt;" style="text;html=1;strokeColor=none;fillColor=none;align=center;verticalAlign=middle;whiteSpace=wrap;rounded=0;" vertex="1" parent="UEzPUAAOIrF-is8g5C7q-74">
          <mxGeometry x="595" y="460" width="70" height="30" as="geometry" />
        </mxCell>
        <mxCell id="Krwih4lJz7rkfIzwkfhB-32" value="" style="endArrow=classic;startArrow=classic;html=1;rounded=0;" edge="1" parent="UEzPUAAOIrF-is8g5C7q-74" source="Krwih4lJz7rkfIzwkfhB-4" target="Krwih4lJz7rkfIzwkfhB-19">
          <mxGeometry width="50" height="50" relative="1" as="geometry">
            <mxPoint x="480" y="360" as="sourcePoint" />
            <mxPoint x="530" y="310" as="targetPoint" />
          </mxGeometry>
        </mxCell>
        <mxCell id="Krwih4lJz7rkfIzwkfhB-38" value="" style="endArrow=classic;startArrow=classic;html=1;rounded=0;exitX=1;exitY=0.25;exitDx=0;exitDy=0;exitPerimeter=0;" edge="1" parent="UEzPUAAOIrF-is8g5C7q-74" source="Krwih4lJz7rkfIzwkfhB-3" target="Krwih4lJz7rkfIzwkfhB-2">
          <mxGeometry width="50" height="50" relative="1" as="geometry">
            <mxPoint x="480" y="360" as="sourcePoint" />
            <mxPoint x="530" y="310" as="targetPoint" />
          </mxGeometry>
        </mxCell>
        <mxCell id="Krwih4lJz7rkfIzwkfhB-34" value="Internet&#xa;gateway" style="sketch=0;outlineConnect=0;fontColor=#232F3E;gradientColor=none;strokeColor=#232F3E;fillColor=#ffffff;dashed=0;verticalLabelPosition=bottom;verticalAlign=top;align=center;html=1;fontSize=12;fontStyle=0;aspect=fixed;shape=mxgraph.aws4.resourceIcon;resIcon=mxgraph.aws4.internet_gateway;direction=south;" vertex="1" parent="Krwih4lJz7rkfIzwkfhB-37">
          <mxGeometry x="750" y="250" width="60" height="60" as="geometry" />
        </mxCell>
        <mxCell id="Krwih4lJz7rkfIzwkfhB-35" value="" style="image;points=[];aspect=fixed;html=1;align=center;shadow=0;dashed=0;image=img/lib/allied_telesis/computer_and_terminals/IP_TV.svg;" vertex="1" parent="Krwih4lJz7rkfIzwkfhB-37">
          <mxGeometry x="960" y="254.8" width="49.199999999999996" height="50.4" as="geometry" />
        </mxCell>
        <mxCell id="Krwih4lJz7rkfIzwkfhB-36" value="" style="endArrow=classic;startArrow=classic;html=1;rounded=0;" edge="1" parent="Krwih4lJz7rkfIzwkfhB-37" source="Krwih4lJz7rkfIzwkfhB-34" target="Krwih4lJz7rkfIzwkfhB-35">
          <mxGeometry width="50" height="50" relative="1" as="geometry">
            <mxPoint x="480" y="360" as="sourcePoint" />
            <mxPoint x="530" y="310" as="targetPoint" />
          </mxGeometry>
        </mxCell>
      </root>
    </mxGraphModel>
  </diagram>
</mxfile>
